# xmcd
#
# Track frame offsets:
#	150
#	11202
#	23750
#	46710
#	60562
#	78420
#	91043
#	99830
#	126030
#	137062
#	148275
#	159896
#	173561
#	196455
#	212199
#	227096
#
# Disc length: 3207 seconds
#
# Revision: 3
# Processed by: cddbd v1.5.2PL0 Copyright (c) Steve Scherf et al.
# Submitted via: EZCDAudioConverter 1.0.8.1
#
DISCID=c90c8510
DTITLE=Various Artist - BEST OF THE BLUES DISC 2
DYEAR=2000
DGENRE=Blues
TTITLE0=BILLIE HOLIDAY - I GOT IT BAD AND THAT AIN'T GOOD (BY DJ GILMAR SINIST
TTITLE0=RO)
TTITLE1=HOWLIN' WOLF - AIN'T SUPERSTITOUS (BY DJ GILMAR SINISTRO)
TTITLE2=BB KING - THE THRILL IS GONE (BY DJ GILMAR SINISTRO)
TTITLE3=LEADBELLY - THE BOURGEOIS BLUES (BY DJ GILMAR SINISTRO)
TTITLE4=JOHN MAYALL - MAMA TALK TO YOUR DAUGHTER (BY DJ GILMAR SINISTRO)
TTITLE5=BIG MAYBELLE - I CRIED FOR YOU (BY DJ GILMAR SINISTRO)
TTITLE6=BIG JOE WILLIAMS - GOIN' AWAY, WON'T BE BACK TILL FALL (BY DJ GILMAR S
TTITLE6=INISTRO)
TTITLE7=BIG MAMATHORNTON - LITTLE RED ROOSTER (BY DJ GILMAR SINISTRO)
TTITLE8=ROY MILTON - INFORMATION BLUES (BY DJ GILMAR SINISTRO)
TTITLE9=AMOS MILBOURNE - BAD BAD WHISKEY (BY DJ GILMAR SINISTRO)
TTITLE10=IKE and TINA TURNER - SO BLUE OVER YOU (BY DJ GILMAR SINISTRO)
TTITLE11=DINAH WASHINGTON - BLUES ON MY WEARY MIND (BY DJ GILMAR SINISTRO)
TTITLE12=BUDDY GUY and JUNIOR WELLS - STORMY MONDAY (BY DJ GILMAR SINISTRO)
TTITLE13=BB KING - THE LETTER (BY DJ GILMAR SINISTRO)
TTITLE14=BILLIE HOLIDAY - LOVER MAN (BY DJ GILMAR SINISTRO)
TTITLE15=LIGHTNIN' HOPKINS - MOJO HAND (BY DJ GILMAR SINISTRO)
EXTD=
EXTT0=
EXTT1=
EXTT2=
EXTT3=
EXTT4=
EXTT5=
EXTT6=
EXTT7=
EXTT8=
EXTT9=
EXTT10=
EXTT11=
EXTT12=
EXTT13=
EXTT14=
EXTT15=
PLAYORDER=
